{"glyphs":{"0":{"ha":1830,"x_min":45,"x_max":1800,"o":"m 364 43 q 87 463 170 197 q 49 783 45 623 q 1033 1697 136 1721 q 1644 1387 1404 1695 q 1779 989 1758 1204 q 1724 517 1800 759 q 1462 111 1627 255 q 364 43 945 -349 m 1173 897 q 952 1049 1123 1046 q 711 958 802 1058 q 665 701 611 829 q 885 540 739 536 q 1154 729 1069 555 q 1173 897 1192 819 z "},"1":{"ha":1340,"x_min":34,"x_max":1249,"o":"m 1249 1687 q 1238 -144 1248 721 q 572 -142 887 -180 q 598 947 570 419 l 406 736 q 34 1032 218 868 l 621 1691 q 1249 1687 908 1699 z "},"2":{"ha":1714,"x_min":41,"x_max":1637,"o":"m 898 1691 q 1287 1620 1073 1706 q 1600 1101 1600 1423 q 1145 398 1605 737 q 1630 395 1367 401 q 1618 -161 1637 54 q 135 -163 890 -144 q 130 342 111 59 q 904 876 808 635 q 937 992 938 941 l 937 1001 q 758 1141 933 1162 q 563 773 581 1086 q 63 968 388 842 q 129 1308 41 1115 q 898 1691 342 1674 z "},"3":{"ha":1517,"x_min":42,"x_max":1588,"o":"m 1060 1655 q 1326 1090 1588 1402 l 1121 890 q 1434 577 1362 732 q 1249 -62 1556 161 q 554 -182 987 -221 q 42 33 214 -148 q 264 455 131 232 q 848 418 840 170 q 406 610 804 608 q 398 878 401 713 l 673 1133 q 567 1202 723 1201 q 258 1090 387 1194 q 51 1494 138 1257 q 1060 1655 566 1826 z "},"4":{"ha":1460,"x_min":55,"x_max":1413,"o":"m 795 1738 q 1274 1395 1040 1602 q 806 849 1037 1089 q 1398 857 1008 828 q 1402 313 1413 579 l 1099 311 q 1099 -131 1088 70 q 530 -142 783 -156 q 544 301 525 197 q 66 307 245 302 q 66 819 55 553 q 795 1738 450 1265 z "},"5":{"ha":1517,"x_min":20,"x_max":1603,"o":"m 566 1242 l 567 1090 q 814 1155 624 1162 q 1423 753 1274 1084 q 1102 -66 1603 244 q 535 -138 849 -193 q 20 86 205 -83 q 195 526 54 283 q 843 503 820 313 q 713 665 839 625 q 523 597 544 696 l 90 597 q 95 1709 79 1187 q 1334 1702 704 1692 q 1329 1242 1344 1494 q 566 1242 836 1246 z "},"6":{"ha":1588,"x_min":-127,"x_max":1579,"o":"m 1492 1592 q 1464 1044 1487 1263 q 836 1147 1036 1211 q 711 936 702 1081 q 1120 1011 825 1066 q 1522 576 1453 934 q 1290 -43 1579 160 q 376 6 855 -303 q 201 1286 -127 444 q 508 1651 347 1554 q 1492 1592 930 1879 m 791 458 q 853 338 784 374 q 1031 397 966 313 q 968 583 1093 524 q 791 458 797 600 z "},"7":{"ha":1628,"x_min":35,"x_max":1591,"o":"m 1575 1714 q 1569 1231 1591 1504 q 774 -151 1034 393 q 119 -139 444 -164 q 800 1163 466 593 l 46 1155 q 52 1704 35 1415 q 1575 1714 787 1698 z "},"8":{"ha":1683,"x_min":-116,"x_max":1638,"o":"m 1031 1718 q 1539 1223 1502 1614 q 1280 819 1556 962 q 1613 430 1544 752 q 1328 -41 1638 163 q 570 -134 954 -227 q 178 84 314 -83 q 291 787 -116 465 q 102 1185 105 924 q 350 1577 98 1388 q 1031 1718 652 1765 m 745 1021 q 969 1065 888 968 q 899 1221 1013 1181 q 703 1146 768 1251 q 745 1021 692 1046 m 718 302 q 1017 346 897 227 q 948 551 1091 493 q 682 466 781 596 q 718 302 652 338 z "},"9":{"ha":1811,"x_min":87,"x_max":1774,"o":"m 132 39 q 152 585 117 368 q 772 446 570 393 q 909 650 911 504 q 498 597 789 526 q 121 1055 170 694 q 388 1659 87 1474 q 1297 1558 836 1894 q 1442 253 1774 1093 q 1072 -76 1319 33 q 132 39 663 -261 m 857 1132 q 802 1254 869 1215 q 621 1205 690 1285 q 673 1017 552 1083 q 857 1132 844 990 z "}," ":{"ha":662,"x_min":0,"x_max":0,"o":""},"!":{"ha":791,"x_min":15,"x_max":733,"o":"m 706 1670 q 639 372 667 755 q 110 369 391 362 q 105 374 110 373 q 61 1664 76 790 q 706 1670 412 1687 m 583 222 q 707 33 733 161 q 595 -104 689 -39 q 440 -161 507 -153 q 210 -142 340 -182 q 59 81 15 -64 q 218 218 103 178 q 465 251 332 257 q 583 222 546 237 z "},",":{"ha":840,"x_min":62,"x_max":785,"o":"m 432 345 q 726 48 699 321 q 288 -475 785 -279 q 232 -431 174 -506 q 418 -155 406 -349 q 83 -11 105 -170 q 131 216 62 106 q 432 345 236 368 z "},".":{"ha":827,"x_min":56,"x_max":774,"o":"m 623 294 q 747 104 774 233 q 636 -33 730 33 q 481 -90 548 -81 q 250 -71 381 -111 q 100 152 56 7 q 258 289 144 250 q 506 322 373 328 q 623 294 587 308 z "},":":{"ha":842,"x_min":56,"x_max":774,"o":"m 309 420 q 168 467 226 435 q 79 595 83 528 q 108 701 76 661 q 271 810 155 760 q 582 838 464 877 q 750 654 714 785 q 591 443 768 501 q 309 420 439 397 m 623 294 q 747 104 774 233 q 636 -33 730 33 q 481 -90 548 -81 q 250 -71 381 -111 q 100 152 56 7 q 258 289 144 250 q 506 322 373 328 q 623 294 587 308 z "},";":{"ha":853,"x_min":76,"x_max":806,"o":"m 309 420 q 168 467 225 435 q 79 595 83 528 q 107 701 76 661 q 271 810 155 760 q 581 838 463 877 q 750 654 714 785 q 591 443 768 501 q 309 420 439 397 m 452 345 q 746 48 720 321 q 308 -475 806 -279 q 252 -431 195 -506 q 439 -155 426 -349 q 104 -11 125 -170 q 151 216 82 106 q 452 345 256 368 z "},"?":{"ha":1453,"x_min":140,"x_max":1415,"o":"m 1011 1665 q 1396 1117 1415 1485 q 869 679 1363 808 q 871 343 862 465 q 453 348 641 340 q 454 959 445 614 q 774 1013 643 961 q 882 1244 998 1105 q 445 1060 670 1439 q 140 1254 205 1205 q 1011 1665 444 1843 m 857 236 q 981 47 1007 175 q 869 -91 963 -25 q 714 -148 781 -139 q 484 -128 614 -169 q 333 94 289 -51 q 492 231 377 192 q 739 264 606 271 q 857 236 820 250 z "},"A":{"ha":1674,"x_min":19,"x_max":1643,"o":"m 363 1684 q 1174 1684 811 1662 l 1643 -121 q 1078 -171 1416 -119 l 995 209 q 690 210 825 223 q 578 -163 610 -31 q 19 -95 317 -120 l 425 1196 l 241 1209 l 363 1684 m 838 924 q 772 663 802 823 q 888 669 831 665 q 838 924 874 806 z "},"B":{"ha":1716,"x_min":31,"x_max":1660,"o":"m 52 1039 q 31 1531 43 1332 q 752 1641 252 1617 q 1538 1286 1349 1650 q 1406 790 1659 992 q 1659 432 1660 654 q 1529 107 1659 211 q 1388 12 1466 47 q 691 -134 1067 -140 q 233 -115 570 -134 q 226 1079 227 722 l 52 1039 m 709 980 q 983 1107 1000 961 q 916 1183 977 1165 q 701 1168 804 1207 q 709 980 700 1070 m 730 330 q 1074 468 1081 294 q 976 551 1059 533 q 725 530 859 576 q 730 330 723 416 z "},"C":{"ha":1360,"x_min":-34,"x_max":1302,"o":"m 1302 528 l 1293 -127 q 125 301 438 -232 q 73 1035 -34 633 q 1292 1647 343 1755 l 1296 926 q 795 894 962 1017 q 743 589 629 771 q 1302 528 884 429 z "},"D":{"ha":1769,"x_min":64,"x_max":1756,"o":"m 64 1591 q 845 1681 376 1685 q 1505 1451 1265 1666 q 1756 738 1744 1236 q 1611 246 1744 410 q 902 -120 1326 -105 q 313 -102 487 -147 q 288 1065 318 291 l 98 1046 q 64 1591 69 1396 m 840 502 q 1122 585 1008 501 q 1203 834 1227 665 q 802 1114 1164 1158 q 840 502 824 839 z "},"E":{"ha":1564,"x_min":47,"x_max":1498,"o":"m 1481 1682 q 1454 1122 1453 1352 l 784 1117 l 789 966 l 1257 981 l 1270 549 q 805 524 1090 533 l 808 391 q 1471 412 1106 390 q 1498 -124 1480 71 q 214 -155 1143 -133 q 214 1113 226 584 l 62 1109 l 47 1662 q 1481 1682 452 1662 z "},"F":{"ha":1574,"x_min":58,"x_max":1537,"o":"m 60 1635 q 1516 1704 631 1706 q 1502 1036 1537 1253 q 844 1036 1166 1049 l 851 883 q 1229 892 1092 894 q 1208 385 1236 744 q 863 374 1033 381 q 863 -138 858 144 q 294 -153 564 -170 q 285 1024 285 -98 l 70 1010 q 60 1635 58 1303 z "},"G":{"ha":1702,"x_min":-84,"x_max":1608,"o":"m 1081 -157 l 1089 -77 q 134 334 398 -229 q 312 1386 -84 882 q 1540 1665 730 1803 q 1533 1044 1565 1329 q 1037 1082 1335 1107 q 689 833 757 1023 q 838 419 628 519 q 1134 471 1036 383 q 966 467 1082 481 l 962 812 q 1605 826 1447 814 q 1592 -143 1608 281 q 1081 -157 1421 -168 z "},"H":{"ha":1529,"x_min":79,"x_max":1470,"o":"m 815 -134 q 853 408 862 229 l 685 400 q 669 -108 667 216 q 79 -123 404 -132 q 136 1665 147 1156 q 706 1680 448 1684 q 696 940 710 1464 l 867 959 q 895 1649 869 1038 q 1470 1681 1173 1668 q 1447 -140 1438 599 q 815 -134 1190 -151 z "},"I":{"ha":884,"x_min":56,"x_max":790,"o":"m 790 1640 q 756 -123 760 708 q 101 -136 464 -138 q 86 1618 56 517 q 790 1640 318 1682 z "},"J":{"ha":1671,"x_min":-9,"x_max":1607,"o":"m 705 1114 q 679 1629 690 1359 q 1449 1693 1156 1687 q 1554 952 1510 1374 q 1213 11 1607 295 q 762 -144 1017 -131 q 396 -98 553 -152 q 173 58 243 -33 q 29 336 77 174 q 10 724 -9 506 q 206 1146 56 1022 l 211 1145 q 623 897 425 1035 q 537 665 547 791 q 683 441 517 453 q 882 530 808 446 q 905 1147 986 591 l 705 1114 z "},"K":{"ha":1573,"x_min":34,"x_max":1532,"o":"m 675 1244 q 1123 1603 891 1390 l 1532 1245 q 946 780 1171 954 q 1520 219 1206 479 q 1057 -165 1274 -35 q 680 280 874 41 q 671 -136 666 22 q 35 -137 334 -191 q 70 1654 34 539 q 666 1693 409 1711 q 675 1244 684 1569 z "},"L":{"ha":1233,"x_min":55,"x_max":1220,"o":"m 661 1670 l 659 397 q 1209 410 920 403 q 1175 -140 1220 95 q 55 -159 749 -181 q 73 1652 83 1246 q 661 1670 402 1678 z "},"M":{"ha":2144,"x_min":23,"x_max":2119,"o":"m 23 1030 l 71 1649 q 866 1693 603 1675 q 1121 1345 993 1504 q 1366 1687 1249 1495 q 1951 1662 1623 1670 q 2119 -99 2094 258 q 1520 -168 1864 -150 q 1455 648 1487 195 l 1090 307 q 779 640 901 498 q 730 -163 745 172 l 102 -138 l 193 1016 l 23 1030 z "},"N":{"ha":1872,"x_min":58,"x_max":1811,"o":"m 72 1640 l 732 1708 q 1220 1061 895 1409 q 1198 1655 1211 1232 q 1811 1699 1527 1667 q 1794 -149 1811 656 q 1383 -160 1631 -149 q 798 559 1143 177 l 805 -160 q 241 -166 526 -149 q 246 1073 257 374 l 58 1057 l 72 1640 z "},"O":{"ha":1847,"x_min":32,"x_max":1787,"o":"m 1468 1516 q 1744 1097 1662 1362 q 1783 777 1787 937 q 799 -137 1695 -161 q 188 173 428 -136 q 53 570 74 356 q 108 1042 32 801 q 370 1449 205 1305 q 1468 1516 886 1909 m 659 642 q 880 490 709 493 q 1121 581 1030 481 q 1167 838 1221 709 q 947 999 1093 1002 q 678 810 762 984 q 659 642 640 720 z "},"P":{"ha":1589,"x_min":37,"x_max":1555,"o":"m 37 1593 q 1098 1662 630 1757 q 1552 1084 1501 1542 q 1011 401 1555 490 q 800 369 882 380 q 825 -154 803 79 q 227 -172 507 -167 q 226 1085 215 593 l 67 1066 l 37 1593 m 774 842 q 1044 994 1025 855 q 983 1137 1045 1093 q 770 1157 868 1204 q 774 842 750 998 z "},"Q":{"ha":1847,"x_min":32,"x_max":1811,"o":"m 1296 -51 q 799 -137 1090 -144 q 188 173 428 -136 q 53 570 74 356 q 108 1042 32 801 q 370 1449 205 1305 q 1468 1516 886 1909 q 1744 1097 1662 1362 q 1783 777 1787 937 q 1646 279 1755 479 l 1811 112 q 1508 -206 1661 -84 l 1296 -51 m 659 642 q 880 490 709 493 q 1121 581 1030 481 q 1167 838 1221 709 q 947 999 1093 1002 q 678 810 762 984 q 659 642 640 720 z "},"R":{"ha":1644,"x_min":30,"x_max":1706,"o":"m 30 1044 q 60 1604 50 1373 q 976 1691 572 1725 q 1361 1548 1187 1663 q 1596 1284 1542 1427 q 1254 524 1706 858 q 1605 172 1442 302 l 1151 -244 l 779 267 q 777 -157 777 35 q 203 -146 394 -177 q 221 1073 199 130 l 30 1044 m 784 1145 q 781 840 773 1002 l 878 869 q 1044 1050 1044 949 q 959 1145 1042 1134 q 784 1145 893 1168 z "},"S":{"ha":1588,"x_min":10,"x_max":1600,"o":"m 107 -44 q 129 553 115 241 q 812 356 523 329 q 939 461 941 380 q 814 500 939 512 q 588 507 648 496 q 446 525 535 505 q 232 601 321 549 q 92 745 144 648 q 37 921 48 814 q 234 1528 10 1285 q 1443 1613 613 1898 l 1431 1010 q 1055 1157 1222 1121 q 680 1069 693 1233 q 905 998 678 964 q 1298 964 1136 1025 q 1525 760 1461 903 q 1540 330 1600 516 q 865 -189 1379 -129 q 107 -44 502 -214 z "},"T":{"ha":1875,"x_min":111,"x_max":1799,"o":"m 1766 1687 q 1754 1059 1799 1343 q 1226 1051 1478 1070 l 1241 -134 q 606 -144 908 -150 l 640 1055 q 133 1044 380 1057 q 133 1691 111 1360 q 1766 1687 933 1676 z "},"U":{"ha":1861,"x_min":50,"x_max":1809,"o":"m 52 1063 q 81 1624 50 1417 q 882 1682 588 1690 q 837 1192 858 1556 q 876 649 817 827 q 1000 543 919 549 q 1128 643 1099 545 q 1139 1684 1202 988 l 1733 1647 q 1775 720 1809 1132 q 1213 -138 1711 48 q 738 -155 985 -212 q 229 637 323 -13 q 225 1078 199 942 l 52 1063 z "},"V":{"ha":1927,"x_min":50,"x_max":1899,"o":"m 127 1101 q 50 1624 64 1430 q 776 1706 414 1695 q 1053 597 939 946 q 1310 1693 1219 1173 l 1899 1649 q 1397 -140 1507 300 q 760 -140 1004 -170 q 322 1130 459 648 l 127 1101 z "},"W":{"ha":2132,"x_min":34,"x_max":2115,"o":"m 2115 1656 q 1685 -142 1855 627 q 1193 -135 1411 -157 l 1006 309 l 840 -141 q 315 -150 616 -162 q 34 1632 186 692 q 639 1697 188 1683 q 763 940 694 1409 l 1015 1341 q 1287 941 1162 1115 l 1475 1694 q 2115 1656 1808 1692 z "},"X":{"ha":1813,"x_min":19,"x_max":1813,"o":"m 523 1741 q 916 1239 810 1363 q 1330 1718 1145 1537 q 1813 1306 1630 1503 q 1288 771 1513 978 l 1750 291 q 1251 -198 1514 19 q 871 289 1064 50 l 508 -203 q 20 229 286 -47 q 488 782 161 429 q 19 1309 259 1079 q 523 1741 231 1535 z "},"Y":{"ha":1823,"x_min":41,"x_max":1790,"o":"m 1232 -189 q 629 -180 913 -192 q 630 713 624 239 q 41 1259 427 910 l 483 1723 q 939 1235 738 1442 q 1350 1729 1107 1446 q 1790 1326 1595 1515 q 1231 705 1548 1050 q 1232 -189 1234 223 z "},"Z":{"ha":1801,"x_min":47,"x_max":1755,"o":"m 83 -144 q 87 388 80 197 q 717 1061 509 858 q 54 1062 313 1053 q 85 1685 47 1428 q 1730 1695 836 1675 q 1731 1074 1740 1466 q 968 450 1242 713 q 1725 452 1310 448 q 1735 -132 1755 149 q 83 -144 937 -151 z "},"'":{"ha":840,"x_min":73,"x_max":796,"o":"m 443 1978 q 736 1681 710 1953 q 298 1157 796 1354 q 243 1202 185 1126 q 429 1478 416 1284 q 94 1622 116 1462 q 142 1849 73 1738 q 443 1978 247 2001 z "},"-":{"ha":1112,"x_min":34,"x_max":1070,"o":"m 1060 996 q 1057 532 1070 789 q 43 532 549 524 l 34 985 q 1060 996 567 999 z "},"&":{"ha":1750,"x_min":58,"x_max":1712,"o":"m 911 1704 q 1205 1535 1085 1682 q 1312 1279 1306 1393 q 1055 836 1335 964 q 1167 744 1107 781 q 1244 865 1190 787 q 1579 680 1388 814 l 1491 505 q 1712 317 1571 448 q 1429 22 1591 157 q 1255 170 1365 87 q 1038 -1 1184 110 q 548 -145 787 -174 q 90 284 179 -121 q 213 743 58 569 q 370 904 301 850 q 264 1312 216 1069 q 556 1653 304 1510 q 911 1704 761 1739 m 768 1088 q 812 1244 920 1168 q 708 1173 709 1265 q 768 1088 711 1116 m 539 411 q 638 313 542 317 q 882 433 757 300 q 673 583 768 507 q 539 411 514 513 z "},"\"":{"ha":1593,"x_min":73,"x_max":1545,"o":"m 443 1978 q 736 1681 710 1953 q 298 1157 796 1354 q 243 1202 185 1126 q 429 1478 416 1284 q 94 1622 116 1462 q 142 1849 73 1738 q 443 1978 247 2001 m 1192 1978 q 1485 1681 1459 1953 q 1047 1157 1545 1354 q 991 1202 934 1126 q 1178 1478 1165 1284 q 843 1622 865 1462 q 890 1849 821 1738 q 1192 1978 996 2001 z "},"/":{"ha":1292,"x_min":34,"x_max":1258,"o":"m 1258 1638 q 529 -227 881 730 q 35 -88 286 -175 q 34 -79 37 -82 q 695 1786 234 526 q 1258 1638 1015 1723 z "},"\\":{"ha":1292,"x_min":34,"x_max":1258,"o":"m 597 1786 q 1258 -79 1058 526 q 1257 -88 1255 -82 q 763 -227 1006 -175 q 34 1638 411 730 q 597 1786 277 1723 z "},"_":{"ha":1661,"x_min":44,"x_max":1617,"o":"m 1605 -264 q 56 -260 633 -265 q 47 39 44 -64 q 52 145 51 142 q 1604 154 535 165 q 1605 -264 1617 -71 z "},"#":{"ha":1788,"x_min":46,"x_max":1722,"o":"m 398 708 q 410 851 405 782 q 66 855 208 853 q 103 1245 68 1038 q 444 1249 281 1247 q 474 1579 461 1441 q 865 1590 659 1599 q 842 1251 853 1414 q 985 1253 916 1253 q 1015 1579 1002 1442 q 1405 1590 1199 1599 q 1382 1255 1394 1415 q 1722 1254 1570 1255 q 1677 845 1714 1036 q 1354 846 1508 846 q 1344 714 1349 779 q 1703 713 1543 714 q 1657 304 1694 496 q 1314 306 1477 305 q 1286 -28 1299 122 q 878 -34 1067 -47 q 906 309 892 146 q 773 309 838 309 q 746 -28 759 123 q 337 -34 527 -47 q 366 312 352 147 q 46 315 180 313 q 83 705 48 498 q 398 708 247 707 m 813 848 q 804 711 808 779 q 939 713 873 712 q 951 848 945 783 q 813 848 880 848 z "},"$":{"ha":1544,"x_min":10,"x_max":1544,"o":"m 555 1687 l 551 1922 q 983 1929 768 1931 q 981 1697 981 1815 q 1388 1594 1168 1670 l 1377 1055 q 1033 1183 1204 1147 q 625 1071 641 1266 q 880 970 623 933 q 1259 939 1105 997 q 1472 751 1413 882 q 1487 339 1544 516 q 1023 -122 1363 -13 q 1027 -372 1023 -250 q 597 -369 819 -382 l 594 -157 q 107 -26 354 -132 q 126 508 115 241 q 788 329 489 301 q 938 461 940 357 q 785 528 939 542 q 562 534 623 524 q 424 551 510 532 q 217 625 302 574 q 87 758 136 669 q 36 924 47 823 q 226 1509 10 1276 q 555 1687 361 1641 z "},"%":{"ha":1629,"x_min":30,"x_max":1583,"o":"m 1453 1638 q 724 -227 1076 730 q 230 -88 480 -175 q 229 -79 232 -82 q 890 1786 429 526 q 1453 1638 1210 1723 m 526 1541 q 622 1397 593 1489 q 635 1286 637 1341 q 295 970 605 962 q 84 1077 167 970 q 37 1215 44 1141 q 56 1378 30 1294 q 146 1518 90 1468 q 526 1541 326 1678 m 271 1251 q 330 1210 284 1211 q 394 1234 370 1207 q 406 1303 421 1268 q 347 1345 387 1347 q 276 1295 298 1342 q 271 1251 265 1272 m 1472 522 q 1568 378 1539 469 q 1581 267 1583 322 q 1241 -50 1551 -58 q 1030 58 1113 -49 q 983 195 990 121 q 1002 359 976 275 q 1093 499 1036 449 q 1472 522 1272 659 m 1217 231 q 1276 191 1230 191 q 1340 215 1316 188 q 1352 283 1367 249 q 1293 326 1333 328 q 1222 276 1244 323 q 1217 231 1211 252 z "},"(":{"ha":1350,"x_min":34,"x_max":1304,"o":"m 792 -585 q 386 -307 562 -491 q 181 -1 250 -162 q 71 747 34 352 q 143 1060 85 882 q 241 1265 184 1169 q 658 1703 422 1554 q 1292 1904 951 1878 l 1277 1497 q 578 749 622 1360 q 1280 -277 564 -170 l 1304 -656 q 792 -585 983 -655 z "},")":{"ha":1350,"x_min":64,"x_max":1334,"o":"m 64 -656 l 87 -277 q 789 749 804 -170 q 91 1497 746 1360 l 76 1904 q 710 1703 416 1878 q 1127 1265 946 1554 q 1225 1060 1184 1169 q 1297 747 1283 882 q 1187 -1 1334 352 q 982 -307 1118 -162 q 576 -585 806 -491 q 64 -656 385 -655 z "},"+":{"ha":1126,"x_min":34,"x_max":1070,"o":"m 779 996 q 1060 996 921 997 q 1057 532 1070 789 q 783 529 920 530 q 783 252 784 389 q 319 255 576 241 q 316 529 317 392 q 43 532 180 530 l 34 985 q 316 991 176 989 q 319 1268 317 1130 l 772 1278 q 779 996 776 1136 z "},"=":{"ha":1158,"x_min":54,"x_max":1095,"o":"m 1084 1362 q 1081 897 1095 1154 q 68 897 574 890 l 58 1351 q 1084 1362 591 1364 m 1080 762 q 1077 297 1090 554 q 64 297 570 290 l 54 751 q 1080 762 587 764 z "},"°":{"ha":714,"x_min":43,"x_max":650,"o":"m 539 1707 q 635 1563 606 1654 q 648 1451 650 1507 q 308 1135 618 1127 q 97 1242 180 1136 q 50 1380 57 1306 q 69 1544 43 1459 q 159 1684 102 1634 q 539 1707 338 1843 m 283 1416 q 342 1375 297 1376 q 407 1400 382 1373 q 419 1468 434 1434 q 360 1511 399 1512 q 289 1461 311 1508 q 283 1416 278 1437 z "},"€":{"ha":1584,"x_min":20,"x_max":1529,"o":"m 1364 1123 q 1360 795 1373 977 q 112 795 509 793 l 20 1119 q 1364 1123 526 1128 m 1364 696 q 1360 369 1373 550 q 114 369 509 366 l 20 692 q 1364 696 526 701 m 919 -136 q 534 71 701 -66 q 340 298 406 178 q 236 854 200 560 q 304 1086 248 954 q 396 1239 342 1167 q 791 1564 568 1453 q 1518 1716 1070 1694 l 1493 1260 q 717 855 758 1310 q 1500 212 703 172 l 1529 -185 q 919 -136 1100 -188 z "},"*":{"ha":1109,"x_min":52,"x_max":1053,"o":"m 699 1051 q 698 829 699 939 q 406 832 568 819 q 404 1056 404 944 q 218 925 311 989 q 52 1166 134 1025 q 292 1337 172 1252 q 52 1509 172 1423 q 218 1750 134 1649 q 404 1619 311 1685 q 406 1845 404 1732 l 691 1855 q 694 1621 693 1737 q 880 1750 787 1685 l 1053 1522 q 798 1337 924 1428 q 1053 1153 924 1246 l 880 925 q 699 1051 789 988 z "},"`":{"ha":703,"x_min":23,"x_max":645,"o":"m 23 275 q 151 500 88 403 q 645 210 327 401 l 514 -8 q 23 275 368 73 z "},"~":{"ha":954,"x_min":-22,"x_max":939,"o":"m 880 407 q 811 26 939 127 q 596 -26 728 -34 q 371 102 449 -16 q 232 168 299 236 q 277 -7 182 90 q 75 -18 182 -20 q 68 310 -22 142 q 287 425 136 421 q 511 312 453 422 q 648 187 571 178 q 697 243 684 193 q 648 406 702 326 q 880 407 806 410 z "},"¨":{"ha":1014,"x_min":36,"x_max":981,"o":"m 52 160 q 66 294 36 222 q 281 444 134 432 q 456 316 397 447 q 420 111 499 214 q 227 39 347 31 q 52 160 91 41 m 534 160 q 549 294 518 222 q 763 444 616 432 q 939 316 880 447 q 902 111 981 214 q 709 39 829 31 q 534 160 573 41 z "},"´":{"ha":679,"x_min":23,"x_max":645,"o":"m 154 -15 l 23 203 q 517 494 341 394 q 645 268 580 396 q 154 -15 300 66 z "},"¸":{"ha":883,"x_min":32,"x_max":848,"o":"m 626 -201 q 835 -420 819 -279 q 589 -743 848 -636 q 367 -762 485 -773 q 32 -500 161 -732 q 227 -386 73 -471 q 507 -494 371 -610 q 437 -358 581 -413 q 233 -326 354 -328 q 232 -1 229 -179 q 499 2 353 4 q 498 -161 494 -69 q 626 -201 535 -170 z "},"ˆ":{"ha":943,"x_min":49,"x_max":891,"o":"m 470 189 q 161 -17 260 48 l 49 198 q 470 484 317 385 q 891 198 623 385 l 779 -17 q 470 189 680 48 z "},"˚":{"ha":605,"x_min":-28,"x_max":578,"o":"m 107 382 q 226 458 149 431 q 364 475 297 481 q 481 435 427 469 q 571 256 571 365 q 304 -31 578 -5 q 210 -20 257 -33 q 87 61 132 4 q 107 382 -28 231 m 296 273 q 254 212 256 254 q 290 163 252 179 q 347 173 319 150 q 368 227 370 193 q 334 277 368 266 q 296 273 316 282 z "},"À":{"ha":1674,"x_min":19,"x_max":1643,"o":"m 363 1684 q 1174 1684 811 1662 l 1643 -121 q 1078 -171 1416 -119 l 995 209 q 690 210 825 223 q 578 -163 610 -31 q 19 -95 317 -120 l 425 1196 l 241 1209 l 363 1684 m 838 924 q 772 663 802 823 q 888 669 831 665 q 838 924 874 806 m 526 1971 q 654 2197 591 2099 q 1148 1906 830 2097 l 1017 1688 q 526 1971 871 1769 z "},"Á":{"ha":1674,"x_min":19,"x_max":1643,"o":"m 363 1684 q 1174 1684 811 1662 l 1643 -121 q 1078 -171 1416 -119 l 995 209 q 690 210 825 223 q 578 -163 610 -31 q 19 -95 317 -120 l 425 1196 l 241 1209 l 363 1684 m 838 924 q 772 663 802 823 q 888 669 831 665 q 838 924 874 806 m 657 1681 l 526 1899 q 1020 2190 844 2090 q 1148 1964 1083 2092 q 657 1681 803 1763 z "},"Â":{"ha":1674,"x_min":19,"x_max":1643,"o":"m 363 1684 q 1174 1684 811 1662 l 1643 -121 q 1078 -171 1416 -119 l 995 209 q 690 210 825 223 q 578 -163 610 -31 q 19 -95 317 -120 l 425 1196 l 241 1209 l 363 1684 m 838 924 q 772 663 802 823 q 888 669 831 665 q 838 924 874 806 m 837 1885 q 528 1679 627 1744 l 416 1894 q 837 2180 684 2081 q 1258 1894 989 2081 l 1146 1679 q 837 1885 1046 1744 z "},"Ã":{"ha":1674,"x_min":19,"x_max":1643,"o":"m 1251 2178 q 1182 1797 1310 1899 q 967 1746 1099 1737 q 742 1874 820 1756 q 603 1939 670 2007 q 648 1764 553 1862 q 446 1753 553 1752 q 439 2081 349 1913 q 658 2196 507 2193 q 882 2083 824 2193 q 1019 1959 942 1950 q 1068 2014 1055 1964 q 1019 2177 1073 2098 q 1251 2178 1177 2182 m 363 1684 q 1174 1684 811 1662 l 1643 -121 q 1078 -171 1416 -119 l 995 209 q 690 210 825 223 q 578 -163 610 -31 q 19 -95 317 -120 l 425 1196 l 241 1209 l 363 1684 m 838 924 q 772 663 802 823 q 888 669 831 665 q 838 924 874 806 z "},"Ä":{"ha":1674,"x_min":19,"x_max":1643,"o":"m 363 1684 q 1174 1684 811 1662 l 1643 -121 q 1078 -171 1416 -119 l 995 209 q 690 210 825 223 q 578 -163 610 -31 q 19 -95 317 -120 l 425 1196 l 241 1209 l 363 1684 m 838 924 q 772 663 802 823 q 888 669 831 665 q 838 924 874 806 m 380 1856 q 395 1990 364 1919 q 609 2140 462 2128 q 785 2012 726 2143 q 748 1807 827 1910 q 555 1735 675 1727 q 380 1856 419 1737 m 862 1856 q 877 1990 846 1919 q 1091 2140 944 2128 q 1267 2012 1208 2143 q 1230 1807 1310 1910 q 1038 1735 1158 1727 q 862 1856 901 1737 z "},"Å":{"ha":1674,"x_min":19,"x_max":1643,"o":"m 363 1684 q 1174 1684 811 1662 l 1643 -121 q 1078 -171 1416 -119 l 995 209 q 690 210 825 223 q 578 -163 610 -31 q 19 -95 317 -120 l 425 1196 l 241 1209 l 363 1684 m 838 924 q 772 663 802 823 q 888 669 831 665 q 838 924 874 806 m 669 2079 q 787 2155 711 2127 q 926 2171 859 2177 q 1042 2131 988 2165 q 1133 1952 1133 2061 q 865 1665 1140 1691 q 771 1676 819 1664 q 649 1757 694 1700 q 669 2079 534 1927 m 857 1969 q 815 1908 818 1950 q 851 1859 814 1875 q 909 1869 880 1846 q 930 1923 932 1889 q 895 1973 929 1962 q 857 1969 878 1978 z "},"Æ":{"ha":2475,"x_min":19,"x_max":2397,"o":"m 363 1684 q 1174 1684 811 1662 l 1643 -121 q 1078 -171 1416 -119 l 995 209 q 690 210 825 223 q 578 -163 610 -31 q 19 -95 317 -120 l 425 1196 l 241 1209 l 363 1684 m 838 924 q 772 663 802 823 q 888 669 831 665 q 838 924 874 806 m 2380 1689 q 2353 1128 2352 1359 l 1683 1124 l 1689 973 l 2156 987 l 2169 555 q 1704 531 1990 540 l 1707 398 q 2370 419 2005 397 q 2397 -117 2379 77 q 1113 -148 2043 -126 q 1113 1120 1125 591 l 961 1116 l 947 1668 q 2380 1689 1351 1668 z "},"Ç":{"ha":1360,"x_min":-34,"x_max":1302,"o":"m 1302 528 l 1293 -127 q 125 301 438 -232 q 73 1035 -34 633 q 1292 1647 343 1755 l 1296 926 q 795 894 962 1017 q 743 589 629 771 q 1302 528 884 429 m 1078 -240 q 1286 -458 1271 -317 q 1041 -781 1299 -675 q 819 -801 937 -812 q 484 -539 613 -771 q 679 -425 525 -510 q 958 -533 823 -648 q 889 -397 1033 -452 q 685 -365 806 -366 q 684 -39 680 -218 q 951 -37 804 -35 q 949 -200 945 -108 q 1078 -240 987 -209 z "},"È":{"ha":1564,"x_min":47,"x_max":1498,"o":"m 1481 1682 q 1454 1122 1453 1352 l 784 1117 l 789 966 l 1257 981 l 1270 549 q 805 524 1090 533 l 808 391 q 1471 412 1106 390 q 1498 -124 1480 71 q 214 -155 1143 -133 q 214 1113 226 584 l 62 1109 l 47 1662 q 1481 1682 452 1662 m 471 1971 q 599 2197 536 2099 q 1093 1906 774 2097 l 962 1688 q 471 1971 816 1769 z "},"É":{"ha":1564,"x_min":47,"x_max":1498,"o":"m 1481 1682 q 1454 1122 1453 1352 l 784 1117 l 789 966 l 1257 981 l 1270 549 q 805 524 1090 533 l 808 391 q 1471 412 1106 390 q 1498 -124 1480 71 q 214 -155 1143 -133 q 214 1113 226 584 l 62 1109 l 47 1662 q 1481 1682 452 1662 m 602 1681 l 471 1899 q 964 2190 789 2090 q 1093 1964 1027 2092 q 602 1681 747 1763 z "},"Ê":{"ha":1564,"x_min":47,"x_max":1498,"o":"m 1481 1682 q 1454 1122 1453 1352 l 784 1117 l 789 966 l 1257 981 l 1270 549 q 805 524 1090 533 l 808 391 q 1471 412 1106 390 q 1498 -124 1480 71 q 214 -155 1143 -133 q 214 1113 226 584 l 62 1109 l 47 1662 q 1481 1682 452 1662 m 782 1885 q 473 1679 572 1744 l 361 1894 q 782 2180 629 2081 q 1203 1894 935 2081 l 1091 1679 q 782 1885 991 1744 z "},"Ë":{"ha":1564,"x_min":47,"x_max":1498,"o":"m 1481 1682 q 1454 1122 1453 1352 l 784 1117 l 789 966 l 1257 981 l 1270 549 q 805 524 1090 533 l 808 391 q 1471 412 1106 390 q 1498 -124 1480 71 q 214 -155 1143 -133 q 214 1113 226 584 l 62 1109 l 47 1662 q 1481 1682 452 1662 m 325 1856 q 340 1990 309 1919 q 554 2140 407 2128 q 730 2012 671 2143 q 693 1807 772 1910 q 500 1735 621 1727 q 325 1856 364 1737 m 807 1856 q 822 1990 791 1919 q 1036 2140 889 2128 q 1212 2012 1153 2143 q 1175 1807 1255 1910 q 983 1735 1103 1727 q 807 1856 846 1737 z "},"Ì":{"ha":884,"x_min":66,"x_max":800,"o":"m 800 1640 q 766 -123 770 708 q 111 -136 474 -138 q 96 1618 66 517 q 800 1640 328 1682 m 141 1971 q 269 2197 206 2099 q 763 1906 445 2097 l 632 1688 q 141 1971 486 1769 z "},"Í":{"ha":884,"x_min":66,"x_max":800,"o":"m 800 1640 q 766 -123 770 708 q 111 -136 474 -138 q 96 1618 66 517 q 800 1640 328 1682 m 272 1681 l 141 1899 q 635 2190 459 2090 q 763 1964 698 2092 q 272 1681 418 1763 z "},"Î":{"ha":884,"x_min":22,"x_max":864,"o":"m 790 1640 q 756 -123 760 708 q 101 -136 464 -138 q 86 1618 56 517 q 790 1640 318 1682 m 443 1885 q 134 1679 233 1744 l 22 1894 q 443 2180 290 2081 q 864 1894 595 2081 l 752 1679 q 443 1885 652 1744 z "},"Ï":{"ha":884,"x_min":-30,"x_max":916,"o":"m 790 1640 q 756 -123 760 708 q 101 -136 464 -138 q 86 1618 56 517 q 790 1640 318 1682 m -14 1856 q 1 1990 -30 1919 q 215 2140 68 2128 q 391 2012 332 2143 q 354 1807 433 1910 q 161 1735 281 1727 q -14 1856 25 1737 m 468 1856 q 483 1990 452 1919 q 697 2140 550 2128 q 873 2012 814 2143 q 836 1807 916 1910 q 644 1735 764 1727 q 468 1856 507 1737 z "},"Ð":{"ha":1769,"x_min":48,"x_max":1756,"o":"m 64 1591 q 845 1681 376 1685 q 1505 1451 1265 1666 q 1756 738 1744 1236 q 1611 246 1744 410 q 902 -120 1326 -105 q 313 -102 487 -147 q 288 1065 318 291 l 98 1046 q 64 1591 69 1396 m 840 502 q 1122 585 1008 501 q 1203 834 1227 665 q 802 1114 1164 1158 q 840 502 824 839 m 1074 1021 q 1071 557 1084 814 q 58 557 564 549 l 48 1010 q 1074 1021 581 1024 z "},"Ñ":{"ha":1872,"x_min":58,"x_max":1811,"o":"m 1251 2178 q 1182 1797 1310 1899 q 967 1746 1099 1737 q 742 1874 820 1756 q 603 1939 670 2007 q 648 1764 553 1862 q 446 1753 553 1752 q 439 2081 349 1913 q 658 2196 507 2193 q 882 2083 824 2193 q 1019 1959 942 1950 q 1068 2014 1055 1964 q 1019 2177 1073 2098 q 1251 2178 1177 2182 m 72 1640 l 732 1708 q 1220 1061 895 1409 q 1198 1655 1211 1232 q 1811 1699 1527 1667 q 1794 -149 1811 656 q 1383 -160 1631 -149 q 798 559 1143 177 l 805 -160 q 241 -166 526 -149 q 246 1073 257 374 l 58 1057 l 72 1640 z "},"Ò":{"ha":1847,"x_min":32,"x_max":1787,"o":"m 1468 1516 q 1744 1097 1662 1362 q 1783 777 1787 937 q 799 -137 1695 -161 q 188 173 428 -136 q 53 570 74 356 q 108 1042 32 801 q 370 1449 205 1305 q 1468 1516 886 1909 m 659 642 q 880 490 709 493 q 1121 581 1030 481 q 1167 838 1221 709 q 947 999 1093 1002 q 678 810 762 984 q 659 642 640 720 m 612 1971 q 741 2197 677 2099 q 1234 1906 916 2097 l 1103 1688 q 612 1971 958 1769 z "},"Ó":{"ha":1847,"x_min":32,"x_max":1787,"o":"m 1468 1516 q 1744 1097 1662 1362 q 1783 777 1787 937 q 799 -137 1695 -161 q 188 173 428 -136 q 53 570 74 356 q 108 1042 32 801 q 370 1449 205 1305 q 1468 1516 886 1909 m 659 642 q 880 490 709 493 q 1121 581 1030 481 q 1167 838 1221 709 q 947 999 1093 1002 q 678 810 762 984 q 659 642 640 720 m 743 1681 l 612 1899 q 1106 2190 930 2090 q 1234 1964 1169 2092 q 743 1681 889 1763 z "},"Ô":{"ha":1847,"x_min":32,"x_max":1787,"o":"m 1468 1516 q 1744 1097 1662 1362 q 1783 777 1787 937 q 799 -137 1695 -161 q 188 173 428 -136 q 53 570 74 356 q 108 1042 32 801 q 370 1449 205 1305 q 1468 1516 886 1909 m 659 642 q 880 490 709 493 q 1121 581 1030 481 q 1167 838 1221 709 q 947 999 1093 1002 q 678 810 762 984 q 659 642 640 720 m 924 1885 q 614 1679 714 1744 l 503 1894 q 924 2180 771 2081 q 1345 1894 1076 2081 l 1233 1679 q 924 1885 1133 1744 z "},"Õ":{"ha":1847,"x_min":32,"x_max":1787,"o":"m 1251 2178 q 1182 1797 1310 1899 q 967 1746 1099 1737 q 742 1874 820 1756 q 603 1939 670 2007 q 648 1764 553 1862 q 446 1753 553 1752 q 439 2081 349 1913 q 658 2196 507 2193 q 882 2083 824 2193 q 1019 1959 942 1950 q 1068 2014 1055 1964 q 1019 2177 1073 2098 q 1251 2178 1177 2182 m 1468 1516 q 1744 1097 1662 1362 q 1783 777 1787 937 q 799 -137 1695 -161 q 188 173 428 -136 q 53 570 74 356 q 108 1042 32 801 q 370 1449 205 1305 q 1468 1516 886 1909 m 659 642 q 880 490 709 493 q 1121 581 1030 481 q 1167 838 1221 709 q 947 999 1093 1002 q 678 810 762 984 q 659 642 640 720 z "},"Ö":{"ha":1847,"x_min":32,"x_max":1787,"o":"m 1468 1516 q 1744 1097 1662 1362 q 1783 777 1787 937 q 799 -137 1695 -161 q 188 173 428 -136 q 53 570 74 356 q 108 1042 32 801 q 370 1449 205 1305 q 1468 1516 886 1909 m 659 642 q 880 490 709 493 q 1121 581 1030 481 q 1167 838 1221 709 q 947 999 1093 1002 q 678 810 762 984 q 659 642 640 720 m 467 1856 q 481 1990 451 1919 q 696 2140 549 2128 q 871 2012 812 2143 q 835 1807 914 1910 q 642 1735 762 1727 q 467 1856 506 1737 m 949 1856 q 964 1990 933 1919 q 1178 2140 1031 2128 q 1354 2012 1295 2143 q 1317 1807 1396 1910 q 1124 1735 1244 1727 q 949 1856 988 1737 z "},"Ø":{"ha":1847,"x_min":32,"x_max":1787,"o":"m 1468 1516 q 1744 1097 1662 1362 q 1783 777 1787 937 q 799 -137 1695 -161 q 188 173 428 -136 q 53 570 74 356 q 108 1042 32 801 q 370 1449 205 1305 q 1468 1516 886 1909 m 659 642 q 880 490 709 493 q 1121 581 1030 481 q 1167 838 1221 709 q 947 999 1093 1002 q 678 810 762 984 q 659 642 640 720 m 1570 1607 q 841 -258 1193 699 q 347 -119 597 -206 q 346 -110 349 -113 q 1007 1754 546 494 q 1570 1607 1327 1692 z "},"Ù":{"ha":1861,"x_min":50,"x_max":1809,"o":"m 52 1063 q 81 1624 50 1417 q 882 1682 588 1690 q 837 1192 858 1556 q 876 649 817 827 q 1000 543 919 549 q 1128 643 1099 545 q 1139 1684 1202 988 l 1733 1647 q 1775 720 1809 1132 q 1213 -138 1711 48 q 738 -155 985 -212 q 229 637 323 -13 q 225 1078 199 942 l 52 1063 m 619 1971 q 747 2197 684 2099 q 1241 1906 923 2097 l 1110 1688 q 619 1971 964 1769 z "},"Ú":{"ha":1861,"x_min":50,"x_max":1809,"o":"m 52 1063 q 81 1624 50 1417 q 882 1682 588 1690 q 837 1192 858 1556 q 876 649 817 827 q 1000 543 919 549 q 1128 643 1099 545 q 1139 1684 1202 988 l 1733 1647 q 1775 720 1809 1132 q 1213 -138 1711 48 q 738 -155 985 -212 q 229 637 323 -13 q 225 1078 199 942 l 52 1063 m 750 1681 l 619 1899 q 1113 2190 937 2090 q 1241 1964 1176 2092 q 750 1681 896 1763 z "},"Û":{"ha":1861,"x_min":50,"x_max":1809,"o":"m 52 1063 q 81 1624 50 1417 q 882 1682 588 1690 q 837 1192 858 1556 q 876 649 817 827 q 1000 543 919 549 q 1128 643 1099 545 q 1139 1684 1202 988 l 1733 1647 q 1775 720 1809 1132 q 1213 -138 1711 48 q 738 -155 985 -212 q 229 637 323 -13 q 225 1078 199 942 l 52 1063 m 930 1885 q 621 1679 721 1744 l 509 1894 q 930 2180 778 2081 q 1352 1894 1083 2081 l 1240 1679 q 930 1885 1140 1744 z "},"Ü":{"ha":1861,"x_min":50,"x_max":1809,"o":"m 52 1063 q 81 1624 50 1417 q 882 1682 588 1690 q 837 1192 858 1556 q 876 649 817 827 q 1000 543 919 549 q 1128 643 1099 545 q 1139 1684 1202 988 l 1733 1647 q 1775 720 1809 1132 q 1213 -138 1711 48 q 738 -155 985 -212 q 229 637 323 -13 q 225 1078 199 942 l 52 1063 m 473 1856 q 488 1990 458 1919 q 703 2140 555 2128 q 878 2012 819 2143 q 842 1807 921 1910 q 649 1735 769 1727 q 473 1856 513 1737 m 956 1856 q 970 1990 940 1919 q 1185 2140 1038 2128 q 1360 2012 1301 2143 q 1324 1807 1403 1910 q 1131 1735 1251 1727 q 956 1856 995 1737 z "},"Ý":{"ha":1823,"x_min":41,"x_max":1790,"o":"m 1232 -189 q 629 -180 913 -192 q 630 713 624 239 q 41 1259 427 910 l 483 1723 q 939 1235 738 1442 q 1350 1729 1107 1446 q 1790 1326 1595 1515 q 1231 705 1548 1050 q 1232 -189 1234 223 m 731 1681 l 600 1899 q 1094 2190 918 2090 q 1222 1964 1157 2092 q 731 1681 877 1763 z "},"̃":{"ha":946,"x_min":-22,"x_max":939,"o":"m 880 407 q 811 26 939 127 q 596 -26 728 -34 q 371 102 449 -16 q 232 168 299 236 q 277 -7 182 90 q 75 -18 182 -20 q 68 310 -22 142 q 287 425 136 421 q 511 312 453 422 q 648 187 571 178 q 697 243 684 193 q 648 406 702 326 q 880 407 806 410 z "},"¡":{"ha":770,"x_min":28,"x_max":747,"o":"m 56 -161 q 123 1137 95 754 q 652 1140 371 1147 q 656 1135 652 1136 q 701 -155 686 719 q 56 -161 350 -178 m 179 1286 q 55 1476 28 1348 q 166 1613 73 1548 q 321 1670 254 1662 q 552 1651 421 1691 q 703 1428 747 1573 q 544 1291 659 1331 q 296 1258 429 1252 q 179 1286 216 1272 z "},"¿":{"ha":1390,"x_min":52,"x_max":1327,"o":"m 456 -114 q 71 434 52 66 q 598 872 104 743 q 596 1208 605 1086 q 1014 1203 826 1211 q 1013 592 1022 937 q 693 538 824 590 q 585 307 469 446 q 1022 491 797 112 q 1327 297 1262 346 q 456 -114 1023 -292 m 610 1315 q 486 1504 460 1376 q 597 1642 504 1576 q 753 1699 686 1690 q 983 1679 852 1720 q 1134 1457 1178 1602 q 975 1320 1090 1359 q 728 1286 861 1280 q 610 1315 647 1301 z "},"@":{"ha":1851,"x_min":-426,"x_max":1817,"o":"m 760 745 q 839 608 760 640 q 991 704 947 588 q 911 918 1038 912 q 760 745 777 899 m 1450 312 q 1033 464 1082 203 q 741 299 911 301 q 517 437 621 299 q 431 792 410 628 q 581 1088 455 972 q 1028 1166 783 1270 q 1042 1254 1034 1190 q 1450 1149 1338 1272 q 1384 704 1403 853 q 1455 629 1384 680 q 1508 749 1483 685 q 1527 1048 1560 865 q 640 1270 1267 1591 q 753 138 -10 744 q 619 -60 736 24 q 470 1567 -426 859 q 1677 1329 1194 2001 q 1777 867 1817 1145 q 1450 312 1744 473 z "},"<":{"ha":1560,"x_min":35,"x_max":1514,"o":"m 1507 801 q 760 639 1101 753 q 1514 421 1184 490 l 1331 -76 q 38 373 737 126 q 35 819 48 637 q 1434 1334 935 1210 q 1507 801 1485 1019 z "},">":{"ha":1619,"x_min":66,"x_max":1546,"o":"m 73 457 q 820 619 479 505 q 66 837 396 768 l 249 1334 q 1542 885 843 1132 q 1546 439 1532 621 q 146 -76 645 48 q 73 457 96 239 z "},"×":{"ha":1605,"x_min":75,"x_max":1524,"o":"m 481 1530 q 799 1124 713 1225 q 1133 1512 985 1366 q 1524 1179 1375 1338 q 1099 747 1281 913 l 1472 359 q 1070 -36 1282 139 q 763 357 919 164 l 469 -40 q 76 309 290 85 q 453 755 189 471 q 75 1181 269 996 q 481 1530 245 1363 z "},"÷":{"ha":811,"x_min":56,"x_max":774,"o":"m 309 805 q 168 861 226 823 q 79 1013 83 932 q 108 1137 76 1090 q 271 1267 155 1208 q 582 1300 464 1346 q 750 1082 714 1237 q 591 832 768 901 q 309 805 439 779 m 623 656 q 747 432 774 583 q 636 269 730 347 q 481 201 548 212 q 250 224 381 176 q 100 488 56 316 q 258 650 144 604 q 506 690 373 696 q 623 656 587 673 z "},"|":{"ha":766,"x_min":56,"x_max":701,"o":"m 56 -156 q 77 1962 95 1339 q 691 1968 371 1981 q 701 -146 686 1282 q 56 -156 350 -184 z "},"©":{"ha":1785,"x_min":45,"x_max":1735,"o":"m 353 104 q 86 508 165 253 q 49 817 45 663 q 996 1697 133 1719 q 1584 1398 1354 1695 q 1714 1015 1694 1222 q 1662 561 1735 793 q 1409 170 1568 309 q 353 104 912 -273 m 1211 1297 q 621 1329 926 1518 q 318 880 345 1172 q 577 348 312 526 q 1178 301 924 126 q 1400 962 1482 541 q 1211 1297 1350 1174 m 1084 718 l 1079 384 q 486 602 644 331 q 459 975 404 770 q 1078 1286 596 1341 l 1080 920 q 826 903 911 966 q 799 748 742 841 q 1084 718 871 667 z "},"®":{"ha":1771,"x_min":45,"x_max":1735,"o":"m 353 104 q 86 508 165 253 q 49 817 45 663 q 996 1697 133 1719 q 1584 1398 1354 1695 q 1714 1015 1694 1222 q 1662 561 1735 793 q 1409 170 1568 309 q 353 104 912 -273 m 505 1250 q 368 888 387 1107 q 680 252 347 452 q 1261 380 952 110 q 1439 951 1495 595 q 1078 1361 1371 1240 q 505 1250 752 1511 m 537 966 q 551 1220 546 1115 q 966 1259 783 1275 q 1141 1194 1063 1246 q 1249 1075 1224 1139 q 1082 725 1298 881 q 1259 494 1164 607 l 1040 399 l 878 612 q 876 420 876 507 q 614 430 743 419 q 624 979 614 551 l 537 966 m 880 1012 q 878 873 875 947 l 922 886 q 998 968 998 922 q 959 1012 996 1006 q 880 1012 929 1022 z "}}}
